# xmcd
#
# Track frame offsets: 
#        150
#        10477
#        27015
#        41732
#        53790
#        59802
#        75135
#        88585
#        106592
#        129060
#        142500
#        158040
#        178472
#
# Disc length: 2531 seconds
#
# Revision: 1
# Processed by: cddbd v1.5.2PL0 Copyright (c) Steve Scherf et al.
# Submitted via: ExactAudioCopy v0.95b4
#
DISCID=9609e10d
DTITLE=Tom Holliston With His Apologists - I Want You To Twist With Me
DYEAR=2003
DGENRE=Rock
TTITLE0=Talk-Action=A Good Dinner Party
TTITLE1=A Hard Year For Me
TTITLE2=I Need A Demographic
TTITLE3=Fan Night
TTITLE4=Pick Slide
TTITLE5=Fussin With The 'Tussin
TTITLE6=Ernst Rohm vs. The N.F.L.
TTITLE7=Second Rate
TTITLE8=Chipmunk Jingo
TTITLE9=Boxcars
TTITLE10=Blues In A
TTITLE11=I Want You To Twist With Me
TTITLE12=The Fifty Best Albums Of All Time
EXTD=
EXTT0=
EXTT1=
EXTT2=
EXTT3=
EXTT4=
EXTT5=
EXTT6=
EXTT7=
EXTT8=
EXTT9=
EXTT10=
EXTT11=
EXTT12=
PLAYORDER=
